HIERARCHY
ROOT pelvis
{
  OFFSET 0 100 0
  CHANNELS 6 Xposition Yposition Zposition Zrotation Xrotation Yrotation
  JOINT pelvis_right_femur
  {
    OFFSET -10.78128 -3.44521 -0.5502486
    CHANNELS 3 Zrotation Xrotation Yrotation
    JOINT right_femur_tibia
    {
      OFFSET -0.8047443 -44.0398 -0.1307829
      CHANNELS 3 Zrotation Xrotation Yrotation
      JOINT right_tibia_foot
      {
        OFFSET 3.006224 -47.83518 -5
        CHANNELS 3 Zrotation Xrotation Yrotation
        End Site
        {
          OFFSET 0 -5 15
        }
      }
    }
  }
  JOINT pelvis_left_femur
  {
    OFFSET 10.78128 -3.44521 -0.5502486
    CHANNELS 3 Zrotation Xrotation Yrotation
    JOINT left_femur_tibia
    {
      OFFSET 0.8047443 -44.0398 -0.1307829
      CHANNELS 3 Zrotation Xrotation Yrotation
      JOINT left_tibia_foot
      {
        OFFSET -4.370144 -48.10324 -4.275266
        CHANNELS 3 Zrotation Xrotation Yrotation
        End Site
        {
          OFFSET 0 -5 15
        }
      }
    }
  }
  JOINT pelvis_spine1
  {
    OFFSET 0 6.468898 -3.129235
    CHANNELS 3 Zrotation Xrotation Yrotation
    JOINT spine1
    {
      OFFSET 0 23.15396 4.99043
      CHANNELS 3 Zrotation Xrotation Yrotation
      JOINT spine2
      {
        OFFSET 0 20.79997 -5.064912
        CHANNELS 3 Zrotation Xrotation Yrotation
        JOINT neck
        {
          OFFSET 0 14.38658 9.616178
          CHANNELS 3 Zrotation Xrotation Yrotation
          End Site
          {
            OFFSET 0 20 0
          }
        }
      }
      JOINT right_manubrium
      {
        OFFSET -5.722621 16.35077 3.967754
        CHANNELS 3 Zrotation Xrotation Yrotation
        JOINT right_clavicle
        {
          OFFSET -13.16364 1.694482 -4.693211
          CHANNELS 3 Zrotation Xrotation Yrotation
          JOINT right_humerus
          {
            OFFSET -28.5034 -0.3100689 -2.792744
            CHANNELS 3 Zrotation Xrotation Yrotation
            JOINT right_radius
            {
              OFFSET -25.15693 0.02248979 -1.271978
              CHANNELS 3 Zrotation Xrotation Yrotation
              End Site
              {
                OFFSET -15 0 0
              }
            }
          }
        }
      }
      JOINT left_manubrium
      {
        OFFSET 5.722621 16.35077 3.967754
        CHANNELS 3 Zrotation Xrotation Yrotation
        JOINT left_clavicle
        {
          OFFSET 13.16364 1.694482 -4.693211
          CHANNELS 3 Zrotation Xrotation Yrotation
          JOINT left_humerus
          {
            OFFSET 29.39168 -1.063119 -2.237045
            CHANNELS 3 Zrotation Xrotation Yrotation
            JOINT left_radius
            {
              OFFSET 24.59957 -0.9528479 0.9047498
              CHANNELS 3 Zrotation Xrotation Yrotation
              End Site
              {
                OFFSET 15 -0 -0
              }
            }
          }
        }
      }
    }
  }
}
MOTION
Frames: 7
Frame Time: 0.0416666666667
-732.6864 122.6258 3043.206 -2.546727 -5.918364 -29.51535 3.300075 -23.2889 -7.370208 -0 6.263053 -0 -11.3537 8.120069 1.166687 -5.165537 14.76662 -6.419202 -0 26.17377 -0 3.782683 -16.0553 14.15553 0.06041983 -1.294283 3.709083 0.8967045 13.34661 -7.861819 0.797979 22.13755 6.096284 4.342605 -20.82812 5.613713 -2.443408 -19.41459 11.95224 95.95682 23.16754 -23.45815 -0 0 8.47891 -20.71208 8.941663 5.220678 7.01611 -27.91124 -8.345645 -85.18783 9.929067 11.1051 0 0 -27.23944 16.23246 14.58353 -10.85374
-735.9554 122.5875 3048.706 -2.553698 -5.915393 -29.5829 3.300072 -23.28886 -7.370221 -0 6.263046 -0 -11.35372 8.120073 1.166693 -5.165534 14.76661 -6.419196 -0 26.17377 -0 3.782695 -16.05529 14.15553 0.06042919 -1.294284 3.709094 0.8966981 13.34663 -7.861818 0.7979777 22.13755 6.096276 4.342607 -20.8281 5.613696 -2.443416 -19.4146 11.95225 95.95682 23.16751 -23.45815 -0 0 8.478922 -20.7121 8.941674 5.220675 7.016105 -27.91126 -8.345666 -85.18784 9.929053 11.10513 0 0 -27.23942 16.23246 14.58354 -10.85373
-739.2308 122.5493 3054.202 -2.560665 -5.912414 -29.65045 3.300069 -23.28882 -7.370236 -0 6.26304 -0 -11.35373 8.120075 1.166701 -5.165531 14.76659 -6.419192 -0 26.17377 -0 3.782712 -16.05528 14.15554 0.06043887 -1.294285 3.709105 0.8966912 13.34664 -7.861816 0.7979761 22.13755 6.096267 4.34261 -20.82808 5.613678 -2.443423 -19.41462 11.95225 95.95683 23.16749 -23.45815 -0 0 8.478937 -20.71212 8.941687 5.220672 7.016099 -27.91127 -8.345688 -85.18786 9.929039 11.10516 0 0 -27.23939 16.23246 14.58355 -10.85373
-742.5127 122.511 3059.693 -2.567628 -5.909426 -29.718 3.300064 -23.28879 -7.370252 -0 6.263036 -0 -11.35375 8.120077 1.166711 -5.165529 14.76657 -6.419191 -0 26.17375 -0 3.782733 -16.05527 14.15554 0.06044857 -1.294285 3.709117 0.8966843 13.34666 -7.861814 0.7979742 22.13755 6.096258 4.342615 -20.82805 5.613659 -2.443429 -19.41463 11.95225 95.95683 23.16747 -23.45814 -0 0 8.478955 -20.71214 8.9417 5.220669 7.016093 -27.91129 -8.34571 -85.18787 9.929023 11.1052 0 0 -27.23936 16.23246 14.58356 -10.85373
-745.801 122.4727 3065.181 -2.574587 -5.906429 -29.78555 3.300059 -23.28876 -7.370269 -0 6.263032 -0 -11.35377 8.120077 1.166723 -5.165527 14.76656 -6.419193 -0 26.17372 -0 3.782758 -16.05527 14.15555 0.060458 -1.294286 3.709129 0.8966774 13.34668 -7.861812 0.797972 22.13755 6.09625 4.342619 -20.82803 5.61364 -2.443434 -19.41464 11.95226 95.95683 23.16745 -23.45814 -0 0 8.478976 -20.71216 8.941713 5.220666 7.016087 -27.91131 -8.345731 -85.18789 9.929007 11.10524 0 0 -27.23932 16.23246 14.58357 -10.85372
-749.0957 122.4344 3070.666 -2.581541 -5.903422 -29.8531 3.300052 -23.28874 -7.370287 -0 6.26303 -0 -11.3538 8.120076 1.166737 -5.165526 14.76654 -6.419196 -0 26.17369 -0 3.782785 -16.05527 14.15556 0.06046689 -1.294287 3.70914 0.8966709 13.3467 -7.86181 0.7979697 22.13755 6.096242 4.342625 -20.82801 5.61362 -2.443437 -19.41465 11.95226 95.95682 23.16743 -23.45813 -0 0 8.478998 -20.71219 8.941725 5.220662 7.016081 -27.91132 -8.345751 -85.18791 9.92899 11.10528 0 0 -27.23928 16.23246 14.58358 -10.85372
-752.3969 122.3961 3076.146 -2.588491 -5.900404 -29.92065 3.300046 -23.28872 -7.370304 -0 6.263029 -0 -11.35382 8.120074 1.166752 -5.165526 14.76652 -6.419202 -0 26.17365 -0 3.782814 -16.05527 14.15557 0.06047501 -1.294287 3.709152 0.8966647 13.34671 -7.861808 0.7979673 22.13755 6.096234 4.34263 -20.82798 5.613601 -2.443439 -19.41466 11.95227 95.95682 23.16742 -23.45812 -0 0 8.479021 -20.71221 8.941737 5.220659 7.016076 -27.91133 -8.345769 -85.18793 9.928975 11.10532 0 0 -27.23923 16.23246 14.58358 -10.85372
